<svg xmlns="http://www.w3.org/2000/svg" xml:lang="en" height="448.4713pt" width="498.48069999999996pt" viewBox="-65.64439999999999 -692.7112999999999 498.48069999999996 448.4713"><circle cx="-61.700399999999995" cy="-314.28" r="1.944" style="stroke:black;fill:black;stroke-width:2;" /><circle cx="61.700399999999995" cy="-314.28" r="1.944" style="stroke:black;fill:black;stroke-width:2;" /><circle cx="-61.700399999999995" cy="-294.84" r="1.944" style="stroke:black;fill:black;stroke-width:2;" /><circle cx="61.700399999999995" cy="-294.84" r="1.944" style="stroke:black;fill:black;stroke-width:2;" /><circle cx="-61.700399999999995" cy="-275.4" r="1.944" style="stroke:black;fill:black;stroke-width:2;" /><circle cx="61.700399999999995" cy="-275.4" r="1.944" style="stroke:black;fill:black;stroke-width:2;" /><circle cx="-61.700399999999995" cy="-255.96" r="1.944" style="stroke:black;fill:black;stroke-width:2;" /><circle cx="61.700399999999995" cy="-255.96" r="1.944" style="stroke:black;fill:black;stroke-width:2;" /><circle cx="257.62185" cy="-638.28" r="1.944" style="stroke:black;fill:black;stroke-width:2;" /><circle cx="390.37815" cy="-638.28" r="1.944" style="stroke:black;fill:black;stroke-width:2;" /><circle cx="257.62185" cy="-618.84" r="1.944" style="stroke:black;fill:black;stroke-width:2;" /><circle cx="390.37815" cy="-618.84" r="1.944" style="stroke:black;fill:black;stroke-width:2;" /><circle cx="257.62185" cy="-599.4" r="1.944" style="stroke:black;fill:black;stroke-width:2;" /><circle cx="390.37815" cy="-599.4" r="1.944" style="stroke:black;fill:black;stroke-width:2;" /><circle cx="257.62185" cy="-579.9599999999999" r="1.944" style="stroke:black;fill:black;stroke-width:2;" /><circle cx="390.37815" cy="-579.9599999999999" r="1.944" style="stroke:black;fill:black;stroke-width:2;" /><path d="M -61.700399999999995,-356.4 L 61.700399999999995,-356.4" style="stroke:black;fill:none;stroke-width:2;stroke-linecap:round;stroke-linejoin:round;" /><path d="M -61.700399999999995,-324.0 L 61.700399999999995,-324.0" style="stroke:black;fill:none;stroke-width:2;stroke-linecap:round;stroke-linejoin:round;" /><path d="M -61.700399999999995,-304.56 L 61.700399999999995,-304.56" style="stroke:black;fill:none;stroke-width:1;stroke-linecap:round;stroke-linejoin:round;" /><path d="M -61.700399999999995,-285.12 L 61.700399999999995,-285.12" style="stroke:black;fill:none;stroke-width:1;stroke-linecap:round;stroke-linejoin:round;" /><path d="M -61.700399999999995,-265.67999999999995 L 61.700399999999995,-265.67999999999995" style="stroke:black;fill:none;stroke-width:1;stroke-linecap:round;stroke-linejoin:round;" /><path d="M -61.700399999999995,-356.4 L -61.700399999999995,-246.23999999999998" style="stroke:black;fill:none;stroke-width:2;stroke-linecap:round;stroke-linejoin:round;" /><path d="M 61.700399999999995,-356.4 L 61.700399999999995,-246.23999999999998" style="stroke:black;fill:none;stroke-width:2;stroke-linecap:round;stroke-linejoin:round;" /><path d="M -61.700399999999995,-246.23999999999998 L 61.700399999999995,-246.23999999999998" style="stroke:black;fill:none;stroke-width:2;stroke-linecap:round;stroke-linejoin:round;" /><path d="M 257.62185,-680.4 L 390.37815,-680.4" style="stroke:black;fill:none;stroke-width:2;stroke-linecap:round;stroke-linejoin:round;" /><path d="M 257.62185,-648.0 L 390.37815,-648.0" style="stroke:black;fill:none;stroke-width:2;stroke-linecap:round;stroke-linejoin:round;" /><path d="M 257.62185,-628.56 L 390.37815,-628.56" style="stroke:black;fill:none;stroke-width:1;stroke-linecap:round;stroke-linejoin:round;" /><path d="M 257.62185,-609.12 L 390.37815,-609.12" style="stroke:black;fill:none;stroke-width:1;stroke-linecap:round;stroke-linejoin:round;" /><path d="M 257.62185,-589.68 L 390.37815,-589.68" style="stroke:black;fill:none;stroke-width:1;stroke-linecap:round;stroke-linejoin:round;" /><path d="M 257.62185,-680.4 L 257.62185,-570.24" style="stroke:black;fill:none;stroke-width:2;stroke-linecap:round;stroke-linejoin:round;" /><path d="M 390.37815,-680.4 L 390.37815,-570.24" style="stroke:black;fill:none;stroke-width:2;stroke-linecap:round;stroke-linejoin:round;" /><path d="M 257.62185,-570.24 L 390.37815,-570.24" style="stroke:black;fill:none;stroke-width:2;stroke-linecap:round;stroke-linejoin:round;" /><path d="M 61.700399999999995,-314.28 L 77.90039999999999,-314.28 L 77.90039999999999,-638.28 L 257.62185000000005,-638.28" style="stroke:#ff6348;fill:none;stroke-width:2;stroke-linecap:round;stroke-linejoin:round;" /><path d="M 61.700399999999995,-294.84 L 88.7004,-294.84 L 88.7004,-618.84 L 257.62185000000005,-618.84" style="stroke:#747d8c;fill:none;stroke-width:2;stroke-linecap:round;stroke-linejoin:round;" /><path d="M 61.700399999999995,-275.4 L 99.50039999999998,-275.4 L 99.50039999999998,-599.4 L 257.62185000000005,-599.4" style="stroke:#ff4757;fill:none;stroke-width:2;stroke-linecap:round;stroke-linejoin:round;" /><path d="M 61.700399999999995,-255.96 L 110.3004,-255.96 L 110.3004,-579.9599999999999 L 257.62185000000005,-579.9599999999999" style="stroke:#ffa502;fill:none;stroke-width:2;stroke-linecap:round;stroke-linejoin:round;" /><g><g fill="black"><symbol id="STIXTwoMath-Regular_3678" width="520" height="51.216" viewBox="0 -31.524 520 51.216"><path d="M 2.7840000000000003 0.0 L 2.7840000000000003 -7.0200000000000005 L 0.36 -7.0200000000000005 L 0.36 -7.884 L 6.24 -7.884 L 6.24 -7.0200000000000005 L 3.8040000000000003 -7.0200000000000005 L 3.8040000000000003 0.0 Z " /></symbol><use href="#STIXTwoMath-Regular_3678" transform="translate(-45.087 -389.2507499999999) scale(1.75)" /><symbol id="STIXTwoMath-Regular_3689" width="444" height="51.216" viewBox="0 -31.524 444 51.216"><path d="M 3.2520000000000002 0.14400000000000002 Q 2.496 0.14400000000000002, 1.8780000000000001 -0.21000000000000002 Q 1.26 -0.5640000000000001, 0.894 -1.23 Q 0.528 -1.8960000000000001, 0.528 -2.82 Q 0.528 -3.7560000000000002, 0.888 -4.428000000000001 Q 1.248 -5.1000000000000005, 1.842 -5.460000000000001 Q 2.436 -5.82, 3.132 -5.82 Q 4.14 -5.82, 4.734 -5.1 Q 5.328 -4.38, 5.328 -3.156 Q 5.328 -3.0, 5.316000000000001 -2.862 Q 5.304 -2.724, 5.28 -2.616 L 1.476 -2.616 Q 1.536 -1.704, 2.04 -1.164 Q 2.544 -0.624, 3.36 -0.624 Q 3.7560000000000002 -0.624, 4.104 -0.75 Q 4.452 -0.876, 4.764 -1.08 L 5.1000000000000005 -0.456 Q 4.728 -0.20400000000000001, 4.272 -0.03 Q 3.8160000000000003 0.14400000000000002, 3.2520000000000002 0.14400000000000002 Z M 1.476 -3.3000000000000003 L 4.488 -3.3000000000000003 Q 4.488 -4.152, 4.122 -4.602 Q 3.7560000000000002 -5.0520000000000005, 3.12 -5.0520000000000005 Q 2.496 -5.0520000000000005, 2.034 -4.6080000000000005 Q 1.572 -4.164, 1.476 -3.3000000000000003 Z " /></symbol><use href="#STIXTwoMath-Regular_3689" transform="translate(-33.55800000000001 -389.2507499999999) scale(1.75)" /><symbol id="STIXTwoMath-Regular_3705" width="374" height="51.216" viewBox="0 -31.524 374 51.216"><path d="M 2.472 0.14400000000000002 Q 1.824 0.14400000000000002, 1.272 -0.08399999999999999 Q 0.72 -0.312, 0.324 -0.648 L 0.792 -1.284 Q 1.176 -0.984, 1.5659999999999998 -0.798 Q 1.956 -0.612, 2.436 -0.612 Q 3.012 -0.612, 3.294 -0.8700000000000001 Q 3.576 -1.1280000000000001, 3.576 -1.476 Q 3.576 -1.776, 3.396 -1.9740000000000002 Q 3.216 -2.172, 2.922 -2.31 Q 2.628 -2.448, 2.2800000000000002 -2.568 Q 1.8840000000000001 -2.724, 1.4940000000000002 -2.922 Q 1.104 -3.12, 0.8520000000000001 -3.4320000000000004 Q 0.6 -3.744, 0.6 -4.224 Q 0.6 -4.896, 1.122 -5.3580000000000005 Q 1.6440000000000001 -5.82, 2.52 -5.82 Q 3.12 -5.82, 3.558 -5.628 Q 3.996 -5.436, 4.308 -5.196 L 3.852 -4.572 Q 3.552 -4.788, 3.24 -4.932 Q 2.928 -5.0760000000000005, 2.544 -5.0760000000000005 Q 2.028 -5.0760000000000005, 1.776 -4.83 Q 1.524 -4.5840000000000005, 1.524 -4.272 Q 1.524 -3.996, 1.698 -3.822 Q 1.872 -3.648, 2.16 -3.528 Q 2.448 -3.408, 2.7720000000000002 -3.2760000000000002 Q 3.156 -3.132, 3.552 -2.946 Q 3.948 -2.7600000000000002, 4.218 -2.436 Q 4.488 -2.112, 4.488 -1.572 Q 4.488 -0.864, 3.96 -0.36 Q 3.432 0.14400000000000002, 2.472 0.14400000000000002 Z " /></symbol><use href="#STIXTwoMath-Regular_3705" transform="translate(-23.478 -389.2507499999999) scale(1.75)" /><symbol id="STIXTwoMath-Regular_3706" width="315" height="51.216" viewBox="0 -31.524 315 51.216"><path d="M 2.688 0.14400000000000002 Q 1.848 0.14400000000000002, 1.4820000000000002 -0.384 Q 1.116 -0.912, 1.116 -1.764 L 1.116 -4.836 L 0.28800000000000003 -4.836 L 0.28800000000000003 -5.556 L 1.164 -5.6160000000000005 L 1.284 -7.284 L 2.076 -7.284 L 2.076 -5.6160000000000005 L 3.6 -5.6160000000000005 L 3.6 -4.836 L 2.076 -4.836 L 2.076 -1.74 Q 2.076 -1.236, 2.268 -0.942 Q 2.46 -0.648, 2.916 -0.648 Q 3.108 -0.648, 3.282 -0.696 Q 3.456 -0.744, 3.588 -0.804 L 3.7800000000000002 -0.07200000000000001 Q 3.54 0.012, 3.27 0.07800000000000001 Q 3.0 0.14400000000000002, 2.688 0.14400000000000002 Z " /></symbol><use href="#STIXTwoMath-Regular_3706" transform="translate(-14.952000000000002 -389.2507499999999) scale(1.75)" /><symbol id="STIXTwoMath-Regular_3671" width="652" height="51.216" viewBox="0 -31.524 652 51.216"><path d="M 1.104 0.0 L 1.104 -7.884 L 2.34 -7.884 L 3.888 -3.684 Q 4.032 -3.2880000000000003, 4.17 -2.874 Q 4.308 -2.46, 4.464 -2.052 L 4.5 -2.052 Q 4.644 -2.46, 4.782 -2.874 Q 4.92 -3.2880000000000003, 5.064 -3.684 L 6.588 -7.884 L 7.824 -7.884 L 7.824 0.0 L 6.864 0.0 L 6.864 -4.296 Q 6.864 -4.824, 6.906000000000001 -5.4719999999999995 Q 6.948 -6.12, 6.996 -6.636 L 6.948 -6.636 L 6.312 -4.836 L 4.8 -0.792 L 4.116 -0.792 L 2.592 -4.836 L 1.956 -6.636 L 1.9080000000000001 -6.636 Q 1.956 -6.12, 1.998 -5.4719999999999995 Q 2.04 -4.824, 2.04 -4.296 L 2.04 0.0 Z " /></symbol><use href="#STIXTwoMath-Regular_3671" transform="translate(-8.085 -389.2507499999999) scale(1.75)" /><symbol id="STIXTwoMath-Regular_3701" width="481" height="51.216" viewBox="0 -31.524 481 51.216"><path d="M 3.144 0.14400000000000002 Q 2.46 0.14400000000000002, 1.8599999999999999 -0.21000000000000002 Q 1.26 -0.5640000000000001, 0.894 -1.23 Q 0.528 -1.8960000000000001, 0.528 -2.844 Q 0.528 -3.7920000000000003, 0.894 -4.452 Q 1.26 -5.112, 1.8599999999999999 -5.466 Q 2.46 -5.82, 3.144 -5.82 Q 3.84 -5.82, 4.4399999999999995 -5.466 Q 5.04 -5.112, 5.406000000000001 -4.452 Q 5.772 -3.7920000000000003, 5.772 -2.844 Q 5.772 -1.8960000000000001, 5.406000000000001 -1.23 Q 5.04 -0.5640000000000001, 4.4399999999999995 -0.21000000000000002 Q 3.84 0.14400000000000002, 3.144 0.14400000000000002 Z M 3.144 -0.66 Q 3.876 -0.66, 4.326 -1.26 Q 4.776 -1.86, 4.776 -2.844 Q 4.776 -3.8160000000000003, 4.326 -4.416 Q 3.876 -5.016, 3.144 -5.016 Q 2.424 -5.016, 1.974 -4.416 Q 1.524 -3.8160000000000003, 1.524 -2.844 Q 1.524 -1.86, 1.974 -1.26 Q 2.424 -0.66, 3.144 -0.66 Z " /></symbol><use href="#STIXTwoMath-Regular_3701" transform="translate(7.518000000000001 -389.2507499999999) scale(1.75)" /><symbol id="STIXTwoMath-Regular_3688" width="458" height="51.216" viewBox="0 -31.524 458 51.216"><path d="M 2.832 0.14400000000000002 Q 2.148 0.14400000000000002, 1.6380000000000001 -0.21600000000000003 Q 1.1280000000000001 -0.5760000000000001, 0.8400000000000001 -1.23 Q 0.552 -1.8840000000000001, 0.552 -2.7600000000000002 Q 0.552 -3.7560000000000002, 0.894 -4.434 Q 1.236 -5.112, 1.7999999999999998 -5.466 Q 2.364 -5.82, 3.012 -5.82 Q 3.48 -5.82, 3.84 -5.652 Q 4.2 -5.484, 4.572 -5.172 L 4.5360000000000005 -6.144 L 4.5360000000000005 -8.472 L 5.496 -8.472 L 5.496 0.0 L 4.704 0.0 L 4.62 -0.672 L 4.5840000000000005 -0.672 Q 4.248 -0.336, 3.822 -0.096 Q 3.396 0.14400000000000002, 2.832 0.14400000000000002 Z M 3.072 -0.672 Q 3.48 -0.672, 3.8280000000000003 -0.8700000000000001 Q 4.176 -1.068, 4.5360000000000005 -1.44 L 4.5360000000000005 -4.428 Q 4.176 -4.752, 3.846 -4.884 Q 3.516 -5.016, 3.204 -5.016 Q 2.496 -5.016, 2.016 -4.428 Q 1.536 -3.84, 1.536 -2.7720000000000002 Q 1.536 -1.824, 1.938 -1.248 Q 2.34 -0.672, 3.072 -0.672 Z " /></symbol><use href="#STIXTwoMath-Regular_3688" transform="translate(18.543 -389.2507499999999) scale(1.75)" /><use href="#STIXTwoMath-Regular_3689" transform="translate(29.820000000000007 -389.2507499999999) scale(1.75)" /><symbol id="STIXTwoMath-Regular_3698" width="209" height="51.216" viewBox="0 -31.524 209 51.216"><path d="M 1.98 0.14400000000000002 Q 1.428 0.14400000000000002, 1.188 -0.186 Q 0.9480000000000001 -0.516, 0.9480000000000001 -1.1400000000000001 L 0.9480000000000001 -8.472 L 1.9080000000000001 -8.472 L 1.9080000000000001 -1.08 Q 1.9080000000000001 -0.852, 1.992 -0.756 Q 2.076 -0.66, 2.184 -0.66 Q 2.22 -0.66, 2.2620000000000005 -0.666 Q 2.3040000000000003 -0.672, 2.388 -0.684 L 2.508 0.048 Q 2.412 0.084, 2.286 0.11400000000000002 Q 2.16 0.14400000000000002, 1.98 0.14400000000000002 Z " /></symbol><use href="#STIXTwoMath-Regular_3698" transform="translate(39.900000000000006 -389.2507499999999) scale(1.75)" /></g></g><g><g fill="black"><symbol id="STIXTwoMath-Regular_3661" width="551" height="51.216" viewBox="0 -31.524 551 51.216"><path d="M 4.152 0.14400000000000002 Q 3.156 0.14400000000000002, 2.358 -0.342 Q 1.56 -0.8280000000000001, 1.104 -1.7400000000000002 Q 0.648 -2.652, 0.648 -3.912 Q 0.648 -5.196, 1.116 -6.114 Q 1.584 -7.032, 2.382 -7.524 Q 3.18 -8.016, 4.164 -8.016 Q 5.0040000000000004 -8.016, 5.5440000000000005 -7.71 Q 6.0840000000000005 -7.404, 6.42 -7.0440000000000005 L 5.856 -6.384 Q 5.16 -7.128, 4.2 -7.128 Q 3.468 -7.128, 2.904 -6.744 Q 2.34 -6.36, 2.022 -5.646000000000001 Q 1.704 -4.932, 1.704 -3.936 Q 1.704 -2.964, 2.01 -2.25 Q 2.316 -1.536, 2.8739999999999997 -1.146 Q 3.432 -0.756, 4.188 -0.756 Q 4.764 -0.756, 5.220000000000001 -0.99 Q 5.676 -1.224, 6.0600000000000005 -1.6320000000000001 L 6.612 -0.996 Q 6.132000000000001 -0.456, 5.532 -0.156 Q 4.932 0.14400000000000002, 4.152 0.14400000000000002 Z " /></symbol><use href="#STIXTwoMath-Regular_3661" transform="translate(-13.092 -342.594) scale(1.0)" /><symbol id="STIXTwoMath-Regular_3670" width="471" height="51.216" viewBox="0 -31.524 471 51.216"><path d="M 1.104 0.0 L 1.104 -7.884 L 2.136 -7.884 L 2.136 -0.876 L 5.652 -0.876 L 5.652 0.0 Z " /></symbol><use href="#STIXTwoMath-Regular_3670" transform="translate(-6.0840000000000005 -342.594) scale(1.0)" /><symbol id="STIXTwoMath-Regular_3669" width="589" height="51.216" viewBox="0 -31.524 589 51.216"><path d="M 1.104 0.0 L 1.104 -7.884 L 2.136 -7.884 L 2.136 -3.948 L 2.172 -3.948 L 5.508 -7.884 L 6.672 -7.884 L 4.152 -4.872 L 7.0680000000000005 0.0 L 5.916 0.0 L 3.516 -4.08 L 2.136 -2.484 L 2.136 0.0 Z " /></symbol><use href="#STIXTwoMath-Regular_3669" transform="translate(-0.11999999999999922 -342.594) scale(1.0)" /><symbol id="STIXTwoMath-Regular_4244" width="313" height="51.216" viewBox="0 -31.524 313 51.216"><path d="M 3.7560000000000002 0.0 L 2.7600000000000002 0.0 L 2.7600000000000002 -6.348 L 1.212 -6.348 L 1.212 -6.996 Q 1.848 -7.0920000000000005, 2.2560000000000002 -7.23 Q 2.664 -7.368, 3.0 -7.5600000000000005 L 3.7560000000000002 -7.5600000000000005 Z " /></symbol><use href="#STIXTwoMath-Regular_4244" transform="translate(6.996 -342.594) scale(1.0)" /></g></g><g><g fill="black"><symbol id="STIXTwoMath-Regular_3676" width="557" height="51.216" viewBox="0 -31.524 557 51.216"><path d="M 1.104 0.0 L 1.104 -7.884 L 3.636 -7.884 Q 4.452 -7.884, 5.088 -7.668 Q 5.724 -7.452, 6.084 -6.9719999999999995 Q 6.444 -6.492, 6.444 -5.676 Q 6.444 -4.728, 5.952 -4.176 Q 5.46 -3.624, 4.644 -3.432 L 6.684 0.0 L 5.5200000000000005 0.0 L 3.588 -3.3240000000000003 L 2.136 -3.3240000000000003 L 2.136 0.0 Z M 2.136 -4.152 L 3.48 -4.152 Q 4.416 -4.152, 4.92 -4.524 Q 5.424 -4.896, 5.424 -5.664 Q 5.424 -6.432, 4.92 -6.744 Q 4.416 -7.056, 3.48 -7.056 L 2.136 -7.056 Z " /></symbol><use href="#STIXTwoMath-Regular_3676" transform="translate(-10.068000000000001 -323.154) scale(1.0)" /><symbol id="STIXTwoMath-Regular_3677" width="507" height="51.216" viewBox="0 -31.524 507 51.216"><path d="M 3.348 0.14400000000000002 Q 2.484 0.14400000000000002, 1.77 -0.174 Q 1.056 -0.492, 0.528 -1.02 L 1.1400000000000001 -1.728 Q 1.572 -1.284, 2.154 -1.02 Q 2.736 -0.756, 3.396 -0.756 Q 4.164 -0.756, 4.602 -1.104 Q 5.04 -1.452, 5.04 -2.04 Q 5.04 -2.424, 4.866 -2.6639999999999997 Q 4.692 -2.904, 4.386 -3.072 Q 4.08 -3.24, 3.696 -3.396 L 2.544 -3.888 Q 2.196 -4.0440000000000005, 1.812 -4.290000000000001 Q 1.428 -4.5360000000000005, 1.17 -4.926 Q 0.912 -5.316, 0.912 -5.892 Q 0.912 -6.516, 1.242 -6.996 Q 1.572 -7.476, 2.1420000000000003 -7.746 Q 2.712 -8.016, 3.432 -8.016 Q 4.164 -8.016, 4.776 -7.746 Q 5.388 -7.476, 5.82 -7.0440000000000005 L 5.28 -6.384 Q 4.896 -6.732, 4.446 -6.93 Q 3.996 -7.128, 3.456 -7.128 Q 2.7720000000000002 -7.128, 2.364 -6.822 Q 1.956 -6.516, 1.956 -5.988 Q 1.956 -5.6160000000000005, 2.154 -5.376 Q 2.352 -5.136, 2.658 -4.98 Q 2.964 -4.824, 3.2880000000000003 -4.692 L 4.428 -4.212 Q 4.884 -4.0200000000000005, 5.2620000000000005 -3.75 Q 5.64 -3.48, 5.862 -3.084 Q 6.0840000000000005 -2.688, 6.0840000000000005 -2.136 Q 6.0840000000000005 -1.488, 5.7540000000000004 -0.972 Q 5.424 -0.456, 4.812 -0.156 Q 4.2 0.14400000000000002, 3.348 0.14400000000000002 Z " /></symbol><use href="#STIXTwoMath-Regular_3677" transform="translate(-3.072000000000001 -323.154) scale(1.0)" /><symbol id="STIXTwoMath-Regular_3678" width="520" height="51.216" viewBox="0 -31.524 520 51.216"><path d="M 2.7840000000000003 0.0 L 2.7840000000000003 -7.0200000000000005 L 0.36 -7.0200000000000005 L 0.36 -7.884 L 6.24 -7.884 L 6.24 -7.0200000000000005 L 3.8040000000000003 -7.0200000000000005 L 3.8040000000000003 0.0 Z " /></symbol><use href="#STIXTwoMath-Regular_3678" transform="translate(3.4800000000000004 -323.154) scale(1.0)" /></g></g><g><g fill="black"><symbol id="STIXTwoMath-Regular_3662" width="577" height="51.216" viewBox="0 -31.524 577 51.216"><path d="M 1.104 0.0 L 1.104 -7.884 L 3.12 -7.884 Q 4.98 -7.884, 5.952 -6.87 Q 6.924 -5.856, 6.924 -3.972 Q 6.924 -2.088, 5.958 -1.044 Q 4.992 0.0, 3.168 0.0 Z M 2.136 -0.84 L 3.048 -0.84 Q 4.464 -0.84, 5.166 -1.662 Q 5.868 -2.484, 5.868 -3.972 Q 5.868 -5.46, 5.166 -6.252000000000001 Q 4.464 -7.0440000000000005, 3.048 -7.0440000000000005 L 2.136 -7.0440000000000005 Z " /></symbol><use href="#STIXTwoMath-Regular_3662" transform="translate(-21.402 -303.204) scale(1.0)" /><symbol id="STIXTwoMath-Regular_1" width="0.0" height="51.216" viewBox="0.0 -31.524 0.0 51.216"><path d="" /></symbol><use href="#STIXTwoMath-Regular_1" transform="translate(-13.842 -303.204) scale(1.0)" /><symbol id="STIXTwoMath-Regular_1066" width="299" height="51.216" viewBox="0 -31.524 299 51.216"><path d="M 3.588 2.352 L 1.08 2.352 L 1.08 -8.832 L 3.588 -8.832 L 3.588 -8.448 L 2.028 -8.448 L 2.028 1.968 L 3.588 1.968 Z " /></symbol><use href="#STIXTwoMath-Regular_1066" transform="translate(-11.022 -303.204) scale(1.0)" /><symbol id="STIXTwoMath-Regular_4246" width="456" height="51.216" viewBox="0 -31.524 456 51.216"><path d="M 2.892 0.14400000000000002 Q 1.956 0.14400000000000002, 1.3319999999999999 -0.186 Q 0.708 -0.516, 0.324 -0.924 L 0.8280000000000001 -1.584 Q 1.176 -1.236, 1.6560000000000001 -0.966 Q 2.136 -0.6960000000000001, 2.832 -0.6960000000000001 Q 3.54 -0.6960000000000001, 3.996 -1.068 Q 4.452 -1.44, 4.452 -2.064 Q 4.452 -2.508, 4.218 -2.838 Q 3.984 -3.168, 3.4379999999999997 -3.354 Q 2.892 -3.54, 1.956 -3.54 L 1.956 -4.296 Q 2.7840000000000003 -4.296, 3.2700000000000005 -4.482 Q 3.7560000000000002 -4.668, 3.966 -4.986000000000001 Q 4.176 -5.304, 4.176 -5.688 Q 4.176 -6.24, 3.81 -6.558 Q 3.444 -6.876, 2.832 -6.876 Q 2.328 -6.876, 1.914 -6.666 Q 1.5 -6.456, 1.1520000000000001 -6.1080000000000005 L 0.612 -6.756 Q 1.068 -7.164000000000001, 1.62 -7.428000000000001 Q 2.172 -7.692, 2.868 -7.692 Q 3.888 -7.692, 4.542 -7.194 Q 5.196 -6.696, 5.196 -5.772 Q 5.196 -5.088, 4.806 -4.644 Q 4.416 -4.2, 3.7800000000000002 -3.984 L 3.7800000000000002 -3.936 Q 4.488 -3.7800000000000002, 4.98 -3.2880000000000003 Q 5.472 -2.7960000000000003, 5.472 -2.016 Q 5.472 -1.344, 5.130000000000001 -0.8580000000000001 Q 4.788 -0.372, 4.2 -0.11399999999999999 Q 3.612 0.14400000000000002, 2.892 0.14400000000000002 Z " /></symbol><use href="#STIXTwoMath-Regular_4246" transform="translate(-6.834 -303.204) scale(1.0)" /><symbol id="STIXTwoMath-Regular_4244" width="313" height="51.216" viewBox="0 -31.524 313 51.216"><path d="M 3.7560000000000002 0.0 L 2.7600000000000002 0.0 L 2.7600000000000002 -6.348 L 1.212 -6.348 L 1.212 -6.996 Q 1.848 -7.0920000000000005, 2.2560000000000002 -7.23 Q 2.664 -7.368, 3.0 -7.5600000000000005 L 3.7560000000000002 -7.5600000000000005 Z " /></symbol><use href="#STIXTwoMath-Regular_4244" transform="translate(-0.7379999999999995 -303.204) scale(1.0)" /><symbol id="STIXTwoMath-Regular_1048" width="194" height="51.216" viewBox="0 -31.524 194 51.216"><path d="M 0.84 1.584 L 0.6960000000000001 1.284 Q 0.924 1.188, 1.1520000000000001 1.038 Q 1.3800000000000001 0.888, 1.536 0.6 Q 1.692 0.312, 1.692 -0.168 Q 1.5 -0.096, 1.32 -0.096 Q 0.972 -0.096, 0.8160000000000001 -0.288 Q 0.66 -0.48, 0.66 -0.744 Q 0.66 -1.032, 0.8520000000000001 -1.242 Q 1.044 -1.452, 1.4040000000000001 -1.452 Q 1.86 -1.452, 2.094 -1.17 Q 2.328 -0.888, 2.328 -0.396 Q 2.328 0.108, 2.166 0.456 Q 2.004 0.804, 1.764 1.02 Q 1.524 1.236, 1.272 1.3679999999999999 Q 1.02 1.5, 0.84 1.584 Z " /></symbol><use href="#STIXTwoMath-Regular_1048" transform="translate(5.3580000000000005 -303.204) scale(1.0)" /><use href="#STIXTwoMath-Regular_1" transform="translate(8.298000000000002 -303.204) scale(1.0)" /><symbol id="STIXTwoMath-Regular_4243" width="463" height="51.216" viewBox="0 -31.524 463 51.216"><path d="M 3.048 0.14400000000000002 Q 1.8840000000000001 0.14400000000000002, 1.218 -0.8820000000000001 Q 0.552 -1.9080000000000001, 0.552 -3.8040000000000003 Q 0.552 -5.712, 1.218 -6.702 Q 1.8840000000000001 -7.692, 3.048 -7.692 Q 4.224 -7.692, 4.890000000000001 -6.696 Q 5.556 -5.7, 5.556 -3.8040000000000003 Q 5.556 -1.9080000000000001, 4.890000000000001 -0.8820000000000001 Q 4.224 0.14400000000000002, 3.048 0.14400000000000002 Z M 3.048 -0.672 Q 3.732 -0.672, 4.152 -1.4100000000000001 Q 4.572 -2.148, 4.572 -3.8040000000000003 Q 4.572 -5.46, 4.152 -6.1739999999999995 Q 3.732 -6.888, 3.048 -6.888 Q 2.376 -6.888, 1.95 -6.1739999999999995 Q 1.524 -5.46, 1.524 -3.8040000000000003 Q 1.524 -2.148, 1.95 -1.4100000000000001 Q 2.376 -0.672, 3.048 -0.672 Z " /></symbol><use href="#STIXTwoMath-Regular_4243" transform="translate(11.118000000000002 -303.204) scale(1.0)" /><symbol id="STIXTwoMath-Regular_1067" width="259" height="51.216" viewBox="0 -31.524 259 51.216"><path d="M 3.108 2.352 L 0.6 2.352 L 0.6 1.968 L 2.16 1.968 L 2.16 -8.448 L 0.6 -8.448 L 0.6 -8.832 L 3.108 -8.832 Z " /></symbol><use href="#STIXTwoMath-Regular_1067" transform="translate(17.214 -303.204) scale(1.0)" /></g></g><g><g fill="black"><symbol id="STIXTwoMath-Regular_3675" width="641" height="51.216" viewBox="0 -31.524 641 51.216"><path d="M 6.54 1.98 Q 5.436 1.98, 4.68 1.452 Q 3.924 0.924, 3.576 0.108 Q 2.712 -0.012, 2.052 -0.534 Q 1.3920000000000001 -1.056, 1.02 -1.9320000000000002 Q 0.648 -2.8080000000000003, 0.648 -3.972 Q 0.648 -5.232, 1.086 -6.138 Q 1.524 -7.0440000000000005, 2.298 -7.53 Q 3.072 -8.016, 4.08 -8.016 Q 5.1000000000000005 -8.016, 5.8740000000000006 -7.53 Q 6.648000000000001 -7.0440000000000005, 7.086 -6.138 Q 7.524 -5.232, 7.524 -3.972 Q 7.524 -2.832, 7.17 -1.974 Q 6.816 -1.116, 6.1739999999999995 -0.5820000000000001 Q 5.532 -0.048, 4.68 0.096 Q 4.956 0.612, 5.478 0.8700000000000001 Q 6.0 1.1280000000000001, 6.672 1.1280000000000001 Q 6.924 1.1280000000000001, 7.128 1.098 Q 7.332 1.068, 7.488 1.02 L 7.692 1.812 Q 7.5120000000000005 1.872, 7.212 1.9260000000000002 Q 6.912 1.98, 6.54 1.98 Z M 4.08 -0.708 Q 4.8 -0.708, 5.334 -1.104 Q 5.868 -1.5, 6.162000000000001 -2.232 Q 6.456 -2.964, 6.456 -3.96 Q 6.456 -5.448, 5.808 -6.288 Q 5.16 -7.128, 4.08 -7.128 Q 3.0 -7.128, 2.352 -6.282 Q 1.704 -5.436, 1.704 -3.96 Q 1.704 -2.976, 1.9980000000000002 -2.2439999999999998 Q 2.2920000000000003 -1.512, 2.826 -1.1099999999999999 Q 3.36 -0.708, 4.08 -0.708 Z " /></symbol><use href="#STIXTwoMath-Regular_3675" transform="translate(-21.701999999999998 -283.764) scale(1.0)" /><symbol id="STIXTwoMath-Regular_1" width="0.0" height="51.216" viewBox="0.0 -31.524 0.0 51.216"><path d="" /></symbol><use href="#STIXTwoMath-Regular_1" transform="translate(-13.541999999999998 -283.764) scale(1.0)" /><symbol id="STIXTwoMath-Regular_1066" width="299" height="51.216" viewBox="0 -31.524 299 51.216"><path d="M 3.588 2.352 L 1.08 2.352 L 1.08 -8.832 L 3.588 -8.832 L 3.588 -8.448 L 2.028 -8.448 L 2.028 1.968 L 3.588 1.968 Z " /></symbol><use href="#STIXTwoMath-Regular_1066" transform="translate(-10.721999999999998 -283.764) scale(1.0)" /><symbol id="STIXTwoMath-Regular_4246" width="456" height="51.216" viewBox="0 -31.524 456 51.216"><path d="M 2.892 0.14400000000000002 Q 1.956 0.14400000000000002, 1.3319999999999999 -0.186 Q 0.708 -0.516, 0.324 -0.924 L 0.8280000000000001 -1.584 Q 1.176 -1.236, 1.6560000000000001 -0.966 Q 2.136 -0.6960000000000001, 2.832 -0.6960000000000001 Q 3.54 -0.6960000000000001, 3.996 -1.068 Q 4.452 -1.44, 4.452 -2.064 Q 4.452 -2.508, 4.218 -2.838 Q 3.984 -3.168, 3.4379999999999997 -3.354 Q 2.892 -3.54, 1.956 -3.54 L 1.956 -4.296 Q 2.7840000000000003 -4.296, 3.2700000000000005 -4.482 Q 3.7560000000000002 -4.668, 3.966 -4.986000000000001 Q 4.176 -5.304, 4.176 -5.688 Q 4.176 -6.24, 3.81 -6.558 Q 3.444 -6.876, 2.832 -6.876 Q 2.328 -6.876, 1.914 -6.666 Q 1.5 -6.456, 1.1520000000000001 -6.1080000000000005 L 0.612 -6.756 Q 1.068 -7.164000000000001, 1.62 -7.428000000000001 Q 2.172 -7.692, 2.868 -7.692 Q 3.888 -7.692, 4.542 -7.194 Q 5.196 -6.696, 5.196 -5.772 Q 5.196 -5.088, 4.806 -4.644 Q 4.416 -4.2, 3.7800000000000002 -3.984 L 3.7800000000000002 -3.936 Q 4.488 -3.7800000000000002, 4.98 -3.2880000000000003 Q 5.472 -2.7960000000000003, 5.472 -2.016 Q 5.472 -1.344, 5.130000000000001 -0.8580000000000001 Q 4.788 -0.372, 4.2 -0.11399999999999999 Q 3.612 0.14400000000000002, 2.892 0.14400000000000002 Z " /></symbol><use href="#STIXTwoMath-Regular_4246" transform="translate(-6.533999999999999 -283.764) scale(1.0)" /><symbol id="STIXTwoMath-Regular_4244" width="313" height="51.216" viewBox="0 -31.524 313 51.216"><path d="M 3.7560000000000002 0.0 L 2.7600000000000002 0.0 L 2.7600000000000002 -6.348 L 1.212 -6.348 L 1.212 -6.996 Q 1.848 -7.0920000000000005, 2.2560000000000002 -7.23 Q 2.664 -7.368, 3.0 -7.5600000000000005 L 3.7560000000000002 -7.5600000000000005 Z " /></symbol><use href="#STIXTwoMath-Regular_4244" transform="translate(-0.43799999999999883 -283.764) scale(1.0)" /><symbol id="STIXTwoMath-Regular_1048" width="194" height="51.216" viewBox="0 -31.524 194 51.216"><path d="M 0.84 1.584 L 0.6960000000000001 1.284 Q 0.924 1.188, 1.1520000000000001 1.038 Q 1.3800000000000001 0.888, 1.536 0.6 Q 1.692 0.312, 1.692 -0.168 Q 1.5 -0.096, 1.32 -0.096 Q 0.972 -0.096, 0.8160000000000001 -0.288 Q 0.66 -0.48, 0.66 -0.744 Q 0.66 -1.032, 0.8520000000000001 -1.242 Q 1.044 -1.452, 1.4040000000000001 -1.452 Q 1.86 -1.452, 2.094 -1.17 Q 2.328 -0.888, 2.328 -0.396 Q 2.328 0.108, 2.166 0.456 Q 2.004 0.804, 1.764 1.02 Q 1.524 1.236, 1.272 1.3679999999999999 Q 1.02 1.5, 0.84 1.584 Z " /></symbol><use href="#STIXTwoMath-Regular_1048" transform="translate(5.658000000000001 -283.764) scale(1.0)" /><use href="#STIXTwoMath-Regular_1" transform="translate(8.598000000000003 -283.764) scale(1.0)" /><symbol id="STIXTwoMath-Regular_4243" width="463" height="51.216" viewBox="0 -31.524 463 51.216"><path d="M 3.048 0.14400000000000002 Q 1.8840000000000001 0.14400000000000002, 1.218 -0.8820000000000001 Q 0.552 -1.9080000000000001, 0.552 -3.8040000000000003 Q 0.552 -5.712, 1.218 -6.702 Q 1.8840000000000001 -7.692, 3.048 -7.692 Q 4.224 -7.692, 4.890000000000001 -6.696 Q 5.556 -5.7, 5.556 -3.8040000000000003 Q 5.556 -1.9080000000000001, 4.890000000000001 -0.8820000000000001 Q 4.224 0.14400000000000002, 3.048 0.14400000000000002 Z M 3.048 -0.672 Q 3.732 -0.672, 4.152 -1.4100000000000001 Q 4.572 -2.148, 4.572 -3.8040000000000003 Q 4.572 -5.46, 4.152 -6.1739999999999995 Q 3.732 -6.888, 3.048 -6.888 Q 2.376 -6.888, 1.95 -6.1739999999999995 Q 1.524 -5.46, 1.524 -3.8040000000000003 Q 1.524 -2.148, 1.95 -1.4100000000000001 Q 2.376 -0.672, 3.048 -0.672 Z " /></symbol><use href="#STIXTwoMath-Regular_4243" transform="translate(11.418 -283.764) scale(1.0)" /><symbol id="STIXTwoMath-Regular_1067" width="259" height="51.216" viewBox="0 -31.524 259 51.216"><path d="M 3.108 2.352 L 0.6 2.352 L 0.6 1.968 L 2.16 1.968 L 2.16 -8.448 L 0.6 -8.448 L 0.6 -8.832 L 3.108 -8.832 Z " /></symbol><use href="#STIXTwoMath-Regular_1067" transform="translate(17.513999999999996 -283.764) scale(1.0)" /></g></g><g><g fill="black"><symbol id="STIXTwoMath-Regular_3678" width="520" height="51.216" viewBox="0 -31.524 520 51.216"><path d="M 2.7840000000000003 0.0 L 2.7840000000000003 -7.0200000000000005 L 0.36 -7.0200000000000005 L 0.36 -7.884 L 6.24 -7.884 L 6.24 -7.0200000000000005 L 3.8040000000000003 -7.0200000000000005 L 3.8040000000000003 0.0 Z " /></symbol><use href="#STIXTwoMath-Regular_3678" transform="translate(273.579 -713.2507499999999) scale(1.75)" /><symbol id="STIXTwoMath-Regular_3689" width="444" height="51.216" viewBox="0 -31.524 444 51.216"><path d="M 3.2520000000000002 0.14400000000000002 Q 2.496 0.14400000000000002, 1.8780000000000001 -0.21000000000000002 Q 1.26 -0.5640000000000001, 0.894 -1.23 Q 0.528 -1.8960000000000001, 0.528 -2.82 Q 0.528 -3.7560000000000002, 0.888 -4.428000000000001 Q 1.248 -5.1000000000000005, 1.842 -5.460000000000001 Q 2.436 -5.82, 3.132 -5.82 Q 4.14 -5.82, 4.734 -5.1 Q 5.328 -4.38, 5.328 -3.156 Q 5.328 -3.0, 5.316000000000001 -2.862 Q 5.304 -2.724, 5.28 -2.616 L 1.476 -2.616 Q 1.536 -1.704, 2.04 -1.164 Q 2.544 -0.624, 3.36 -0.624 Q 3.7560000000000002 -0.624, 4.104 -0.75 Q 4.452 -0.876, 4.764 -1.08 L 5.1000000000000005 -0.456 Q 4.728 -0.20400000000000001, 4.272 -0.03 Q 3.8160000000000003 0.14400000000000002, 3.2520000000000002 0.14400000000000002 Z M 1.476 -3.3000000000000003 L 4.488 -3.3000000000000003 Q 4.488 -4.152, 4.122 -4.602 Q 3.7560000000000002 -5.0520000000000005, 3.12 -5.0520000000000005 Q 2.496 -5.0520000000000005, 2.034 -4.6080000000000005 Q 1.572 -4.164, 1.476 -3.3000000000000003 Z " /></symbol><use href="#STIXTwoMath-Regular_3689" transform="translate(285.108 -713.2507499999999) scale(1.75)" /><symbol id="STIXTwoMath-Regular_3705" width="374" height="51.216" viewBox="0 -31.524 374 51.216"><path d="M 2.472 0.14400000000000002 Q 1.824 0.14400000000000002, 1.272 -0.08399999999999999 Q 0.72 -0.312, 0.324 -0.648 L 0.792 -1.284 Q 1.176 -0.984, 1.5659999999999998 -0.798 Q 1.956 -0.612, 2.436 -0.612 Q 3.012 -0.612, 3.294 -0.8700000000000001 Q 3.576 -1.1280000000000001, 3.576 -1.476 Q 3.576 -1.776, 3.396 -1.9740000000000002 Q 3.216 -2.172, 2.922 -2.31 Q 2.628 -2.448, 2.2800000000000002 -2.568 Q 1.8840000000000001 -2.724, 1.4940000000000002 -2.922 Q 1.104 -3.12, 0.8520000000000001 -3.4320000000000004 Q 0.6 -3.744, 0.6 -4.224 Q 0.6 -4.896, 1.122 -5.3580000000000005 Q 1.6440000000000001 -5.82, 2.52 -5.82 Q 3.12 -5.82, 3.558 -5.628 Q 3.996 -5.436, 4.308 -5.196 L 3.852 -4.572 Q 3.552 -4.788, 3.24 -4.932 Q 2.928 -5.0760000000000005, 2.544 -5.0760000000000005 Q 2.028 -5.0760000000000005, 1.776 -4.83 Q 1.524 -4.5840000000000005, 1.524 -4.272 Q 1.524 -3.996, 1.698 -3.822 Q 1.872 -3.648, 2.16 -3.528 Q 2.448 -3.408, 2.7720000000000002 -3.2760000000000002 Q 3.156 -3.132, 3.552 -2.946 Q 3.948 -2.7600000000000002, 4.218 -2.436 Q 4.488 -2.112, 4.488 -1.572 Q 4.488 -0.864, 3.96 -0.36 Q 3.432 0.14400000000000002, 2.472 0.14400000000000002 Z " /></symbol><use href="#STIXTwoMath-Regular_3705" transform="translate(295.188 -713.2507499999999) scale(1.75)" /><symbol id="STIXTwoMath-Regular_3706" width="315" height="51.216" viewBox="0 -31.524 315 51.216"><path d="M 2.688 0.14400000000000002 Q 1.848 0.14400000000000002, 1.4820000000000002 -0.384 Q 1.116 -0.912, 1.116 -1.764 L 1.116 -4.836 L 0.28800000000000003 -4.836 L 0.28800000000000003 -5.556 L 1.164 -5.6160000000000005 L 1.284 -7.284 L 2.076 -7.284 L 2.076 -5.6160000000000005 L 3.6 -5.6160000000000005 L 3.6 -4.836 L 2.076 -4.836 L 2.076 -1.74 Q 2.076 -1.236, 2.268 -0.942 Q 2.46 -0.648, 2.916 -0.648 Q 3.108 -0.648, 3.282 -0.696 Q 3.456 -0.744, 3.588 -0.804 L 3.7800000000000002 -0.07200000000000001 Q 3.54 0.012, 3.27 0.07800000000000001 Q 3.0 0.14400000000000002, 2.688 0.14400000000000002 Z " /></symbol><use href="#STIXTwoMath-Regular_3706" transform="translate(303.714 -713.2507499999999) scale(1.75)" /><symbol id="STIXTwoMath-Regular_3671" width="652" height="51.216" viewBox="0 -31.524 652 51.216"><path d="M 1.104 0.0 L 1.104 -7.884 L 2.34 -7.884 L 3.888 -3.684 Q 4.032 -3.2880000000000003, 4.17 -2.874 Q 4.308 -2.46, 4.464 -2.052 L 4.5 -2.052 Q 4.644 -2.46, 4.782 -2.874 Q 4.92 -3.2880000000000003, 5.064 -3.684 L 6.588 -7.884 L 7.824 -7.884 L 7.824 0.0 L 6.864 0.0 L 6.864 -4.296 Q 6.864 -4.824, 6.906000000000001 -5.4719999999999995 Q 6.948 -6.12, 6.996 -6.636 L 6.948 -6.636 L 6.312 -4.836 L 4.8 -0.792 L 4.116 -0.792 L 2.592 -4.836 L 1.956 -6.636 L 1.9080000000000001 -6.636 Q 1.956 -6.12, 1.998 -5.4719999999999995 Q 2.04 -4.824, 2.04 -4.296 L 2.04 0.0 Z " /></symbol><use href="#STIXTwoMath-Regular_3671" transform="translate(310.581 -713.2507499999999) scale(1.75)" /><symbol id="STIXTwoMath-Regular_3701" width="481" height="51.216" viewBox="0 -31.524 481 51.216"><path d="M 3.144 0.14400000000000002 Q 2.46 0.14400000000000002, 1.8599999999999999 -0.21000000000000002 Q 1.26 -0.5640000000000001, 0.894 -1.23 Q 0.528 -1.8960000000000001, 0.528 -2.844 Q 0.528 -3.7920000000000003, 0.894 -4.452 Q 1.26 -5.112, 1.8599999999999999 -5.466 Q 2.46 -5.82, 3.144 -5.82 Q 3.84 -5.82, 4.4399999999999995 -5.466 Q 5.04 -5.112, 5.406000000000001 -4.452 Q 5.772 -3.7920000000000003, 5.772 -2.844 Q 5.772 -1.8960000000000001, 5.406000000000001 -1.23 Q 5.04 -0.5640000000000001, 4.4399999999999995 -0.21000000000000002 Q 3.84 0.14400000000000002, 3.144 0.14400000000000002 Z M 3.144 -0.66 Q 3.876 -0.66, 4.326 -1.26 Q 4.776 -1.86, 4.776 -2.844 Q 4.776 -3.8160000000000003, 4.326 -4.416 Q 3.876 -5.016, 3.144 -5.016 Q 2.424 -5.016, 1.974 -4.416 Q 1.524 -3.8160000000000003, 1.524 -2.844 Q 1.524 -1.86, 1.974 -1.26 Q 2.424 -0.66, 3.144 -0.66 Z " /></symbol><use href="#STIXTwoMath-Regular_3701" transform="translate(326.184 -713.2507499999999) scale(1.75)" /><symbol id="STIXTwoMath-Regular_3688" width="458" height="51.216" viewBox="0 -31.524 458 51.216"><path d="M 2.832 0.14400000000000002 Q 2.148 0.14400000000000002, 1.6380000000000001 -0.21600000000000003 Q 1.1280000000000001 -0.5760000000000001, 0.8400000000000001 -1.23 Q 0.552 -1.8840000000000001, 0.552 -2.7600000000000002 Q 0.552 -3.7560000000000002, 0.894 -4.434 Q 1.236 -5.112, 1.7999999999999998 -5.466 Q 2.364 -5.82, 3.012 -5.82 Q 3.48 -5.82, 3.84 -5.652 Q 4.2 -5.484, 4.572 -5.172 L 4.5360000000000005 -6.144 L 4.5360000000000005 -8.472 L 5.496 -8.472 L 5.496 0.0 L 4.704 0.0 L 4.62 -0.672 L 4.5840000000000005 -0.672 Q 4.248 -0.336, 3.822 -0.096 Q 3.396 0.14400000000000002, 2.832 0.14400000000000002 Z M 3.072 -0.672 Q 3.48 -0.672, 3.8280000000000003 -0.8700000000000001 Q 4.176 -1.068, 4.5360000000000005 -1.44 L 4.5360000000000005 -4.428 Q 4.176 -4.752, 3.846 -4.884 Q 3.516 -5.016, 3.204 -5.016 Q 2.496 -5.016, 2.016 -4.428 Q 1.536 -3.84, 1.536 -2.7720000000000002 Q 1.536 -1.824, 1.938 -1.248 Q 2.34 -0.672, 3.072 -0.672 Z " /></symbol><use href="#STIXTwoMath-Regular_3688" transform="translate(337.209 -713.2507499999999) scale(1.75)" /><use href="#STIXTwoMath-Regular_3689" transform="translate(348.486 -713.2507499999999) scale(1.75)" /><symbol id="STIXTwoMath-Regular_3698" width="209" height="51.216" viewBox="0 -31.524 209 51.216"><path d="M 1.98 0.14400000000000002 Q 1.428 0.14400000000000002, 1.188 -0.186 Q 0.9480000000000001 -0.516, 0.9480000000000001 -1.1400000000000001 L 0.9480000000000001 -8.472 L 1.9080000000000001 -8.472 L 1.9080000000000001 -1.08 Q 1.9080000000000001 -0.852, 1.992 -0.756 Q 2.076 -0.66, 2.184 -0.66 Q 2.22 -0.66, 2.2620000000000005 -0.666 Q 2.3040000000000003 -0.672, 2.388 -0.684 L 2.508 0.048 Q 2.412 0.084, 2.286 0.11400000000000002 Q 2.16 0.14400000000000002, 1.98 0.14400000000000002 Z " /></symbol><use href="#STIXTwoMath-Regular_3698" transform="translate(358.56600000000003 -713.2507499999999) scale(1.75)" /><symbol id="STIXTwoMath-Regular_4245" width="462" height="51.216" viewBox="0 -31.524 462 51.216"><path d="M 0.492 0.0 L 0.492 -0.6 Q 1.668 -1.728, 2.484 -2.58 Q 3.3000000000000003 -3.432, 3.732 -4.116 Q 4.164 -4.8, 4.164 -5.412 Q 4.164 -6.0600000000000005, 3.798 -6.468 Q 3.432 -6.876, 2.688 -6.876 Q 2.196 -6.876, 1.782 -6.618 Q 1.368 -6.36, 1.02 -5.976 L 0.444 -6.54 Q 0.936 -7.0680000000000005, 1.494 -7.380000000000001 Q 2.052 -7.692, 2.8080000000000003 -7.692 Q 3.9 -7.692, 4.53 -7.08 Q 5.16 -6.468, 5.16 -5.46 Q 5.16 -4.764, 4.746 -4.0440000000000005 Q 4.332 -3.3240000000000003, 3.612 -2.5260000000000002 Q 2.892 -1.728, 1.968 -0.804 Q 2.2800000000000002 -0.8280000000000001, 2.628 -0.8460000000000001 Q 2.976 -0.864, 3.2760000000000002 -0.864 L 5.5440000000000005 -0.864 L 5.5440000000000005 0.0 Z " /></symbol><use href="#STIXTwoMath-Regular_4245" transform="translate(363.75300000000004 -713.2507499999999) scale(1.75)" /></g></g><g><g fill="black"><symbol id="STIXTwoMath-Regular_3661" width="551" height="51.216" viewBox="0 -31.524 551 51.216"><path d="M 4.152 0.14400000000000002 Q 3.156 0.14400000000000002, 2.358 -0.342 Q 1.56 -0.8280000000000001, 1.104 -1.7400000000000002 Q 0.648 -2.652, 0.648 -3.912 Q 0.648 -5.196, 1.116 -6.114 Q 1.584 -7.032, 2.382 -7.524 Q 3.18 -8.016, 4.164 -8.016 Q 5.0040000000000004 -8.016, 5.5440000000000005 -7.71 Q 6.0840000000000005 -7.404, 6.42 -7.0440000000000005 L 5.856 -6.384 Q 5.16 -7.128, 4.2 -7.128 Q 3.468 -7.128, 2.904 -6.744 Q 2.34 -6.36, 2.022 -5.646000000000001 Q 1.704 -4.932, 1.704 -3.936 Q 1.704 -2.964, 2.01 -2.25 Q 2.316 -1.536, 2.8739999999999997 -1.146 Q 3.432 -0.756, 4.188 -0.756 Q 4.764 -0.756, 5.220000000000001 -0.99 Q 5.676 -1.224, 6.0600000000000005 -1.6320000000000001 L 6.612 -0.996 Q 6.132000000000001 -0.456, 5.532 -0.156 Q 4.932 0.14400000000000002, 4.152 0.14400000000000002 Z " /></symbol><use href="#STIXTwoMath-Regular_3661" transform="translate(310.908 -666.594) scale(1.0)" /><symbol id="STIXTwoMath-Regular_3670" width="471" height="51.216" viewBox="0 -31.524 471 51.216"><path d="M 1.104 0.0 L 1.104 -7.884 L 2.136 -7.884 L 2.136 -0.876 L 5.652 -0.876 L 5.652 0.0 Z " /></symbol><use href="#STIXTwoMath-Regular_3670" transform="translate(317.916 -666.594) scale(1.0)" /><symbol id="STIXTwoMath-Regular_3669" width="589" height="51.216" viewBox="0 -31.524 589 51.216"><path d="M 1.104 0.0 L 1.104 -7.884 L 2.136 -7.884 L 2.136 -3.948 L 2.172 -3.948 L 5.508 -7.884 L 6.672 -7.884 L 4.152 -4.872 L 7.0680000000000005 0.0 L 5.916 0.0 L 3.516 -4.08 L 2.136 -2.484 L 2.136 0.0 Z " /></symbol><use href="#STIXTwoMath-Regular_3669" transform="translate(323.88 -666.594) scale(1.0)" /><symbol id="STIXTwoMath-Regular_4244" width="313" height="51.216" viewBox="0 -31.524 313 51.216"><path d="M 3.7560000000000002 0.0 L 2.7600000000000002 0.0 L 2.7600000000000002 -6.348 L 1.212 -6.348 L 1.212 -6.996 Q 1.848 -7.0920000000000005, 2.2560000000000002 -7.23 Q 2.664 -7.368, 3.0 -7.5600000000000005 L 3.7560000000000002 -7.5600000000000005 Z " /></symbol><use href="#STIXTwoMath-Regular_4244" transform="translate(330.99600000000004 -666.594) scale(1.0)" /></g></g><g><g fill="black"><symbol id="STIXTwoMath-Regular_3676" width="557" height="51.216" viewBox="0 -31.524 557 51.216"><path d="M 1.104 0.0 L 1.104 -7.884 L 3.636 -7.884 Q 4.452 -7.884, 5.088 -7.668 Q 5.724 -7.452, 6.084 -6.9719999999999995 Q 6.444 -6.492, 6.444 -5.676 Q 6.444 -4.728, 5.952 -4.176 Q 5.46 -3.624, 4.644 -3.432 L 6.684 0.0 L 5.5200000000000005 0.0 L 3.588 -3.3240000000000003 L 2.136 -3.3240000000000003 L 2.136 0.0 Z M 2.136 -4.152 L 3.48 -4.152 Q 4.416 -4.152, 4.92 -4.524 Q 5.424 -4.896, 5.424 -5.664 Q 5.424 -6.432, 4.92 -6.744 Q 4.416 -7.056, 3.48 -7.056 L 2.136 -7.056 Z " /></symbol><use href="#STIXTwoMath-Regular_3676" transform="translate(313.932 -647.1540000000001) scale(1.0)" /><symbol id="STIXTwoMath-Regular_3677" width="507" height="51.216" viewBox="0 -31.524 507 51.216"><path d="M 3.348 0.14400000000000002 Q 2.484 0.14400000000000002, 1.77 -0.174 Q 1.056 -0.492, 0.528 -1.02 L 1.1400000000000001 -1.728 Q 1.572 -1.284, 2.154 -1.02 Q 2.736 -0.756, 3.396 -0.756 Q 4.164 -0.756, 4.602 -1.104 Q 5.04 -1.452, 5.04 -2.04 Q 5.04 -2.424, 4.866 -2.6639999999999997 Q 4.692 -2.904, 4.386 -3.072 Q 4.08 -3.24, 3.696 -3.396 L 2.544 -3.888 Q 2.196 -4.0440000000000005, 1.812 -4.290000000000001 Q 1.428 -4.5360000000000005, 1.17 -4.926 Q 0.912 -5.316, 0.912 -5.892 Q 0.912 -6.516, 1.242 -6.996 Q 1.572 -7.476, 2.1420000000000003 -7.746 Q 2.712 -8.016, 3.432 -8.016 Q 4.164 -8.016, 4.776 -7.746 Q 5.388 -7.476, 5.82 -7.0440000000000005 L 5.28 -6.384 Q 4.896 -6.732, 4.446 -6.93 Q 3.996 -7.128, 3.456 -7.128 Q 2.7720000000000002 -7.128, 2.364 -6.822 Q 1.956 -6.516, 1.956 -5.988 Q 1.956 -5.6160000000000005, 2.154 -5.376 Q 2.352 -5.136, 2.658 -4.98 Q 2.964 -4.824, 3.2880000000000003 -4.692 L 4.428 -4.212 Q 4.884 -4.0200000000000005, 5.2620000000000005 -3.75 Q 5.64 -3.48, 5.862 -3.084 Q 6.0840000000000005 -2.688, 6.0840000000000005 -2.136 Q 6.0840000000000005 -1.488, 5.7540000000000004 -0.972 Q 5.424 -0.456, 4.812 -0.156 Q 4.2 0.14400000000000002, 3.348 0.14400000000000002 Z " /></symbol><use href="#STIXTwoMath-Regular_3677" transform="translate(320.928 -647.1540000000001) scale(1.0)" /><symbol id="STIXTwoMath-Regular_3678" width="520" height="51.216" viewBox="0 -31.524 520 51.216"><path d="M 2.7840000000000003 0.0 L 2.7840000000000003 -7.0200000000000005 L 0.36 -7.0200000000000005 L 0.36 -7.884 L 6.24 -7.884 L 6.24 -7.0200000000000005 L 3.8040000000000003 -7.0200000000000005 L 3.8040000000000003 0.0 Z " /></symbol><use href="#STIXTwoMath-Regular_3678" transform="translate(327.48 -647.1540000000001) scale(1.0)" /></g></g><g><g fill="black"><symbol id="STIXTwoMath-Regular_3662" width="577" height="51.216" viewBox="0 -31.524 577 51.216"><path d="M 1.104 0.0 L 1.104 -7.884 L 3.12 -7.884 Q 4.98 -7.884, 5.952 -6.87 Q 6.924 -5.856, 6.924 -3.972 Q 6.924 -2.088, 5.958 -1.044 Q 4.992 0.0, 3.168 0.0 Z M 2.136 -0.84 L 3.048 -0.84 Q 4.464 -0.84, 5.166 -1.662 Q 5.868 -2.484, 5.868 -3.972 Q 5.868 -5.46, 5.166 -6.252000000000001 Q 4.464 -7.0440000000000005, 3.048 -7.0440000000000005 L 2.136 -7.0440000000000005 Z " /></symbol><use href="#STIXTwoMath-Regular_3662" transform="translate(302.598 -627.2040000000001) scale(1.0)" /><symbol id="STIXTwoMath-Regular_1" width="0.0" height="51.216" viewBox="0.0 -31.524 0.0 51.216"><path d="" /></symbol><use href="#STIXTwoMath-Regular_1" transform="translate(310.158 -627.2040000000001) scale(1.0)" /><symbol id="STIXTwoMath-Regular_1066" width="299" height="51.216" viewBox="0 -31.524 299 51.216"><path d="M 3.588 2.352 L 1.08 2.352 L 1.08 -8.832 L 3.588 -8.832 L 3.588 -8.448 L 2.028 -8.448 L 2.028 1.968 L 3.588 1.968 Z " /></symbol><use href="#STIXTwoMath-Regular_1066" transform="translate(312.978 -627.2040000000001) scale(1.0)" /><symbol id="STIXTwoMath-Regular_4246" width="456" height="51.216" viewBox="0 -31.524 456 51.216"><path d="M 2.892 0.14400000000000002 Q 1.956 0.14400000000000002, 1.3319999999999999 -0.186 Q 0.708 -0.516, 0.324 -0.924 L 0.8280000000000001 -1.584 Q 1.176 -1.236, 1.6560000000000001 -0.966 Q 2.136 -0.6960000000000001, 2.832 -0.6960000000000001 Q 3.54 -0.6960000000000001, 3.996 -1.068 Q 4.452 -1.44, 4.452 -2.064 Q 4.452 -2.508, 4.218 -2.838 Q 3.984 -3.168, 3.4379999999999997 -3.354 Q 2.892 -3.54, 1.956 -3.54 L 1.956 -4.296 Q 2.7840000000000003 -4.296, 3.2700000000000005 -4.482 Q 3.7560000000000002 -4.668, 3.966 -4.986000000000001 Q 4.176 -5.304, 4.176 -5.688 Q 4.176 -6.24, 3.81 -6.558 Q 3.444 -6.876, 2.832 -6.876 Q 2.328 -6.876, 1.914 -6.666 Q 1.5 -6.456, 1.1520000000000001 -6.1080000000000005 L 0.612 -6.756 Q 1.068 -7.164000000000001, 1.62 -7.428000000000001 Q 2.172 -7.692, 2.868 -7.692 Q 3.888 -7.692, 4.542 -7.194 Q 5.196 -6.696, 5.196 -5.772 Q 5.196 -5.088, 4.806 -4.644 Q 4.416 -4.2, 3.7800000000000002 -3.984 L 3.7800000000000002 -3.936 Q 4.488 -3.7800000000000002, 4.98 -3.2880000000000003 Q 5.472 -2.7960000000000003, 5.472 -2.016 Q 5.472 -1.344, 5.130000000000001 -0.8580000000000001 Q 4.788 -0.372, 4.2 -0.11399999999999999 Q 3.612 0.14400000000000002, 2.892 0.14400000000000002 Z " /></symbol><use href="#STIXTwoMath-Regular_4246" transform="translate(317.166 -627.2040000000001) scale(1.0)" /><symbol id="STIXTwoMath-Regular_4244" width="313" height="51.216" viewBox="0 -31.524 313 51.216"><path d="M 3.7560000000000002 0.0 L 2.7600000000000002 0.0 L 2.7600000000000002 -6.348 L 1.212 -6.348 L 1.212 -6.996 Q 1.848 -7.0920000000000005, 2.2560000000000002 -7.23 Q 2.664 -7.368, 3.0 -7.5600000000000005 L 3.7560000000000002 -7.5600000000000005 Z " /></symbol><use href="#STIXTwoMath-Regular_4244" transform="translate(323.262 -627.2040000000001) scale(1.0)" /><symbol id="STIXTwoMath-Regular_1048" width="194" height="51.216" viewBox="0 -31.524 194 51.216"><path d="M 0.84 1.584 L 0.6960000000000001 1.284 Q 0.924 1.188, 1.1520000000000001 1.038 Q 1.3800000000000001 0.888, 1.536 0.6 Q 1.692 0.312, 1.692 -0.168 Q 1.5 -0.096, 1.32 -0.096 Q 0.972 -0.096, 0.8160000000000001 -0.288 Q 0.66 -0.48, 0.66 -0.744 Q 0.66 -1.032, 0.8520000000000001 -1.242 Q 1.044 -1.452, 1.4040000000000001 -1.452 Q 1.86 -1.452, 2.094 -1.17 Q 2.328 -0.888, 2.328 -0.396 Q 2.328 0.108, 2.166 0.456 Q 2.004 0.804, 1.764 1.02 Q 1.524 1.236, 1.272 1.3679999999999999 Q 1.02 1.5, 0.84 1.584 Z " /></symbol><use href="#STIXTwoMath-Regular_1048" transform="translate(329.358 -627.2040000000001) scale(1.0)" /><use href="#STIXTwoMath-Regular_1" transform="translate(332.298 -627.2040000000001) scale(1.0)" /><symbol id="STIXTwoMath-Regular_4243" width="463" height="51.216" viewBox="0 -31.524 463 51.216"><path d="M 3.048 0.14400000000000002 Q 1.8840000000000001 0.14400000000000002, 1.218 -0.8820000000000001 Q 0.552 -1.9080000000000001, 0.552 -3.8040000000000003 Q 0.552 -5.712, 1.218 -6.702 Q 1.8840000000000001 -7.692, 3.048 -7.692 Q 4.224 -7.692, 4.890000000000001 -6.696 Q 5.556 -5.7, 5.556 -3.8040000000000003 Q 5.556 -1.9080000000000001, 4.890000000000001 -0.8820000000000001 Q 4.224 0.14400000000000002, 3.048 0.14400000000000002 Z M 3.048 -0.672 Q 3.732 -0.672, 4.152 -1.4100000000000001 Q 4.572 -2.148, 4.572 -3.8040000000000003 Q 4.572 -5.46, 4.152 -6.1739999999999995 Q 3.732 -6.888, 3.048 -6.888 Q 2.376 -6.888, 1.95 -6.1739999999999995 Q 1.524 -5.46, 1.524 -3.8040000000000003 Q 1.524 -2.148, 1.95 -1.4100000000000001 Q 2.376 -0.672, 3.048 -0.672 Z " /></symbol><use href="#STIXTwoMath-Regular_4243" transform="translate(335.118 -627.2040000000001) scale(1.0)" /><symbol id="STIXTwoMath-Regular_1067" width="259" height="51.216" viewBox="0 -31.524 259 51.216"><path d="M 3.108 2.352 L 0.6 2.352 L 0.6 1.968 L 2.16 1.968 L 2.16 -8.448 L 0.6 -8.448 L 0.6 -8.832 L 3.108 -8.832 Z " /></symbol><use href="#STIXTwoMath-Regular_1067" transform="translate(341.214 -627.2040000000001) scale(1.0)" /></g></g><g><g fill="black"><symbol id="STIXTwoMath-Regular_3675" width="641" height="51.216" viewBox="0 -31.524 641 51.216"><path d="M 6.54 1.98 Q 5.436 1.98, 4.68 1.452 Q 3.924 0.924, 3.576 0.108 Q 2.712 -0.012, 2.052 -0.534 Q 1.3920000000000001 -1.056, 1.02 -1.9320000000000002 Q 0.648 -2.8080000000000003, 0.648 -3.972 Q 0.648 -5.232, 1.086 -6.138 Q 1.524 -7.0440000000000005, 2.298 -7.53 Q 3.072 -8.016, 4.08 -8.016 Q 5.1000000000000005 -8.016, 5.8740000000000006 -7.53 Q 6.648000000000001 -7.0440000000000005, 7.086 -6.138 Q 7.524 -5.232, 7.524 -3.972 Q 7.524 -2.832, 7.17 -1.974 Q 6.816 -1.116, 6.1739999999999995 -0.5820000000000001 Q 5.532 -0.048, 4.68 0.096 Q 4.956 0.612, 5.478 0.8700000000000001 Q 6.0 1.1280000000000001, 6.672 1.1280000000000001 Q 6.924 1.1280000000000001, 7.128 1.098 Q 7.332 1.068, 7.488 1.02 L 7.692 1.812 Q 7.5120000000000005 1.872, 7.212 1.9260000000000002 Q 6.912 1.98, 6.54 1.98 Z M 4.08 -0.708 Q 4.8 -0.708, 5.334 -1.104 Q 5.868 -1.5, 6.162000000000001 -2.232 Q 6.456 -2.964, 6.456 -3.96 Q 6.456 -5.448, 5.808 -6.288 Q 5.16 -7.128, 4.08 -7.128 Q 3.0 -7.128, 2.352 -6.282 Q 1.704 -5.436, 1.704 -3.96 Q 1.704 -2.976, 1.9980000000000002 -2.2439999999999998 Q 2.2920000000000003 -1.512, 2.826 -1.1099999999999999 Q 3.36 -0.708, 4.08 -0.708 Z " /></symbol><use href="#STIXTwoMath-Regular_3675" transform="translate(299.25 -607.764) scale(1.0)" /><symbol id="STIXTwoMath-Regular_4245" width="462" height="51.216" viewBox="0 -31.524 462 51.216"><path d="M 0.492 0.0 L 0.492 -0.6 Q 1.668 -1.728, 2.484 -2.58 Q 3.3000000000000003 -3.432, 3.732 -4.116 Q 4.164 -4.8, 4.164 -5.412 Q 4.164 -6.0600000000000005, 3.798 -6.468 Q 3.432 -6.876, 2.688 -6.876 Q 2.196 -6.876, 1.782 -6.618 Q 1.368 -6.36, 1.02 -5.976 L 0.444 -6.54 Q 0.936 -7.0680000000000005, 1.494 -7.380000000000001 Q 2.052 -7.692, 2.8080000000000003 -7.692 Q 3.9 -7.692, 4.53 -7.08 Q 5.16 -6.468, 5.16 -5.46 Q 5.16 -4.764, 4.746 -4.0440000000000005 Q 4.332 -3.3240000000000003, 3.612 -2.5260000000000002 Q 2.892 -1.728, 1.968 -0.804 Q 2.2800000000000002 -0.8280000000000001, 2.628 -0.8460000000000001 Q 2.976 -0.864, 3.2760000000000002 -0.864 L 5.5440000000000005 -0.864 L 5.5440000000000005 0.0 Z " /></symbol><use href="#STIXTwoMath-Regular_4245" transform="translate(307.41 -607.764) scale(1.0)" /><symbol id="STIXTwoMath-Regular_1" width="0.0" height="51.216" viewBox="0.0 -31.524 0.0 51.216"><path d="" /></symbol><use href="#STIXTwoMath-Regular_1" transform="translate(313.506 -607.764) scale(1.0)" /><symbol id="STIXTwoMath-Regular_1066" width="299" height="51.216" viewBox="0 -31.524 299 51.216"><path d="M 3.588 2.352 L 1.08 2.352 L 1.08 -8.832 L 3.588 -8.832 L 3.588 -8.448 L 2.028 -8.448 L 2.028 1.968 L 3.588 1.968 Z " /></symbol><use href="#STIXTwoMath-Regular_1066" transform="translate(316.326 -607.764) scale(1.0)" /><symbol id="STIXTwoMath-Regular_4246" width="456" height="51.216" viewBox="0 -31.524 456 51.216"><path d="M 2.892 0.14400000000000002 Q 1.956 0.14400000000000002, 1.3319999999999999 -0.186 Q 0.708 -0.516, 0.324 -0.924 L 0.8280000000000001 -1.584 Q 1.176 -1.236, 1.6560000000000001 -0.966 Q 2.136 -0.6960000000000001, 2.832 -0.6960000000000001 Q 3.54 -0.6960000000000001, 3.996 -1.068 Q 4.452 -1.44, 4.452 -2.064 Q 4.452 -2.508, 4.218 -2.838 Q 3.984 -3.168, 3.4379999999999997 -3.354 Q 2.892 -3.54, 1.956 -3.54 L 1.956 -4.296 Q 2.7840000000000003 -4.296, 3.2700000000000005 -4.482 Q 3.7560000000000002 -4.668, 3.966 -4.986000000000001 Q 4.176 -5.304, 4.176 -5.688 Q 4.176 -6.24, 3.81 -6.558 Q 3.444 -6.876, 2.832 -6.876 Q 2.328 -6.876, 1.914 -6.666 Q 1.5 -6.456, 1.1520000000000001 -6.1080000000000005 L 0.612 -6.756 Q 1.068 -7.164000000000001, 1.62 -7.428000000000001 Q 2.172 -7.692, 2.868 -7.692 Q 3.888 -7.692, 4.542 -7.194 Q 5.196 -6.696, 5.196 -5.772 Q 5.196 -5.088, 4.806 -4.644 Q 4.416 -4.2, 3.7800000000000002 -3.984 L 3.7800000000000002 -3.936 Q 4.488 -3.7800000000000002, 4.98 -3.2880000000000003 Q 5.472 -2.7960000000000003, 5.472 -2.016 Q 5.472 -1.344, 5.130000000000001 -0.8580000000000001 Q 4.788 -0.372, 4.2 -0.11399999999999999 Q 3.612 0.14400000000000002, 2.892 0.14400000000000002 Z " /></symbol><use href="#STIXTwoMath-Regular_4246" transform="translate(320.514 -607.764) scale(1.0)" /><symbol id="STIXTwoMath-Regular_4244" width="313" height="51.216" viewBox="0 -31.524 313 51.216"><path d="M 3.7560000000000002 0.0 L 2.7600000000000002 0.0 L 2.7600000000000002 -6.348 L 1.212 -6.348 L 1.212 -6.996 Q 1.848 -7.0920000000000005, 2.2560000000000002 -7.23 Q 2.664 -7.368, 3.0 -7.5600000000000005 L 3.7560000000000002 -7.5600000000000005 Z " /></symbol><use href="#STIXTwoMath-Regular_4244" transform="translate(326.61 -607.764) scale(1.0)" /><symbol id="STIXTwoMath-Regular_1048" width="194" height="51.216" viewBox="0 -31.524 194 51.216"><path d="M 0.84 1.584 L 0.6960000000000001 1.284 Q 0.924 1.188, 1.1520000000000001 1.038 Q 1.3800000000000001 0.888, 1.536 0.6 Q 1.692 0.312, 1.692 -0.168 Q 1.5 -0.096, 1.32 -0.096 Q 0.972 -0.096, 0.8160000000000001 -0.288 Q 0.66 -0.48, 0.66 -0.744 Q 0.66 -1.032, 0.8520000000000001 -1.242 Q 1.044 -1.452, 1.4040000000000001 -1.452 Q 1.86 -1.452, 2.094 -1.17 Q 2.328 -0.888, 2.328 -0.396 Q 2.328 0.108, 2.166 0.456 Q 2.004 0.804, 1.764 1.02 Q 1.524 1.236, 1.272 1.3679999999999999 Q 1.02 1.5, 0.84 1.584 Z " /></symbol><use href="#STIXTwoMath-Regular_1048" transform="translate(332.706 -607.764) scale(1.0)" /><use href="#STIXTwoMath-Regular_1" transform="translate(335.646 -607.764) scale(1.0)" /><symbol id="STIXTwoMath-Regular_4243" width="463" height="51.216" viewBox="0 -31.524 463 51.216"><path d="M 3.048 0.14400000000000002 Q 1.8840000000000001 0.14400000000000002, 1.218 -0.8820000000000001 Q 0.552 -1.9080000000000001, 0.552 -3.8040000000000003 Q 0.552 -5.712, 1.218 -6.702 Q 1.8840000000000001 -7.692, 3.048 -7.692 Q 4.224 -7.692, 4.890000000000001 -6.696 Q 5.556 -5.7, 5.556 -3.8040000000000003 Q 5.556 -1.9080000000000001, 4.890000000000001 -0.8820000000000001 Q 4.224 0.14400000000000002, 3.048 0.14400000000000002 Z M 3.048 -0.672 Q 3.732 -0.672, 4.152 -1.4100000000000001 Q 4.572 -2.148, 4.572 -3.8040000000000003 Q 4.572 -5.46, 4.152 -6.1739999999999995 Q 3.732 -6.888, 3.048 -6.888 Q 2.376 -6.888, 1.95 -6.1739999999999995 Q 1.524 -5.46, 1.524 -3.8040000000000003 Q 1.524 -2.148, 1.95 -1.4100000000000001 Q 2.376 -0.672, 3.048 -0.672 Z " /></symbol><use href="#STIXTwoMath-Regular_4243" transform="translate(338.466 -607.764) scale(1.0)" /><symbol id="STIXTwoMath-Regular_1067" width="259" height="51.216" viewBox="0 -31.524 259 51.216"><path d="M 3.108 2.352 L 0.6 2.352 L 0.6 1.968 L 2.16 1.968 L 2.16 -8.448 L 0.6 -8.448 L 0.6 -8.832 L 3.108 -8.832 Z " /></symbol><use href="#STIXTwoMath-Regular_1067" transform="translate(344.562 -607.764) scale(1.0)" /></g></g></svg>